<svg width="376" height="487" viewBox="0 0 376 487" fill="none" xmlns="http://www.w3.org/2000/svg">
<g filter="url(#filter0_dddddd_6343_19221)">
<path d="M195.71 162.014C218.918 162.014 237.731 143.2 237.731 119.993C237.731 96.7851 218.918 77.9717 195.71 77.9717C172.502 77.9717 153.689 96.7851 153.689 119.993C153.689 143.2 172.502 162.014 195.71 162.014Z" fill="#1EA1FF"/>
<path d="M195.71 162.289C172.319 162.289 153.344 143.314 153.344 119.923C153.344 96.5316 172.319 77.5566 195.71 77.5566C219.101 77.5566 238.076 96.5316 238.076 119.923C238.007 143.383 219.101 162.289 195.71 162.289ZM195.71 78.3156C172.733 78.3156 154.034 96.9456 154.034 119.992C154.034 143.038 172.664 161.668 195.71 161.668C218.756 161.668 237.386 143.038 237.386 119.992C237.317 97.0146 218.687 78.3156 195.71 78.3156Z" fill="#686868"/>
<path d="M190.052 162.014C213.259 162.014 232.073 143.2 232.073 119.993C232.073 96.7851 213.259 77.9717 190.052 77.9717C166.844 77.9717 148.031 96.7851 148.031 119.993C148.031 143.2 166.844 162.014 190.052 162.014Z" fill="black"/>
<path d="M190.052 162.289C166.661 162.289 147.686 143.314 147.686 119.923C147.686 96.5316 166.661 77.5566 190.052 77.5566C213.443 77.5566 232.418 96.5316 232.418 119.923C232.349 143.383 213.443 162.289 190.052 162.289ZM190.052 78.3156C167.075 78.3156 148.376 96.9456 148.376 119.992C148.376 143.038 167.006 161.668 190.052 161.668C213.098 161.668 231.728 143.038 231.728 119.992C231.659 97.0146 213.029 78.3156 190.052 78.3156Z" fill="#686868"/>
<path d="M190.052 154.631C209.182 154.631 224.69 139.123 224.69 119.992C224.69 100.862 209.182 85.3545 190.052 85.3545C170.922 85.3545 155.414 100.862 155.414 119.992C155.414 139.123 170.922 154.631 190.052 154.631Z" fill="black"/>
<path d="M190.052 154.976C170.732 154.976 155 139.313 155 119.924C155 100.535 170.663 84.8721 190.052 84.8721C209.441 84.8721 225.104 100.535 225.104 119.924C225.035 139.313 209.372 154.976 190.052 154.976ZM190.052 85.6311C171.077 85.6311 155.69 101.018 155.69 119.993C155.69 138.968 171.077 154.355 190.052 154.355C209.027 154.355 224.414 138.968 224.414 119.993C224.345 101.018 209.027 85.7001 190.052 85.6311Z" fill="#686868"/>
<path d="M196.814 145.384H191.915C191.156 145.384 190.535 144.763 190.535 144.004V140.002H184.946V144.004C184.946 144.763 184.325 145.384 183.566 145.384H178.667C177.908 145.384 177.287 144.763 177.287 144.004V140.002H172.94C172.181 140.002 171.56 139.381 171.56 138.622V135.103C171.56 134.344 172.181 133.723 172.94 133.723H177.287V105.364H172.94C172.181 105.364 171.56 104.743 171.56 103.984V100.465C171.56 99.7063 172.181 99.0853 172.94 99.0853H177.287V95.9112C177.287 95.1522 177.908 94.5312 178.667 94.5312H183.566C184.325 94.5312 184.946 95.1522 184.946 95.9112V99.0163H190.535V95.9112C190.535 95.1522 191.156 94.5312 191.915 94.5312H196.814C197.573 94.5312 198.194 95.1522 198.194 95.9112V99.0853C203.99 99.7063 208.406 104.536 208.406 110.401C208.406 113.989 206.681 117.439 203.714 119.578C208.751 123.235 209.855 130.342 206.198 135.379C204.335 138.001 201.368 139.657 198.194 140.002V144.073C198.194 144.763 197.573 145.384 196.814 145.384ZM184.67 139.312H190.949C191.156 139.312 191.294 139.45 191.294 139.657V144.004C191.294 144.418 191.57 144.694 191.984 144.694H196.883C197.297 144.694 197.573 144.418 197.573 144.004V139.588C197.573 139.381 197.711 139.243 197.918 139.243C203.783 138.829 208.199 133.723 207.785 127.927C207.578 124.615 205.784 121.648 203.024 119.785C202.955 119.716 202.886 119.578 202.886 119.509C202.886 119.371 202.955 119.302 203.024 119.233C207.923 115.99 209.234 109.435 206.06 104.536C204.266 101.776 201.23 100.051 197.918 99.7753C197.711 99.7753 197.573 99.6373 197.573 99.4303V95.9112C197.573 95.4972 197.297 95.2212 196.883 95.2212H191.984C191.57 95.2212 191.294 95.4972 191.294 95.9112V99.3612C191.294 99.5683 191.156 99.7063 190.949 99.7063H184.739C184.532 99.7063 184.394 99.5683 184.394 99.3612V95.9112C184.394 95.4972 184.118 95.2212 183.704 95.2212H178.805C178.391 95.2212 178.115 95.4972 178.115 95.9112V99.3612C178.115 99.5683 177.977 99.7063 177.77 99.7063H173.078C172.664 99.7063 172.388 99.9822 172.388 100.396V103.915C172.388 104.329 172.664 104.605 173.078 104.605H177.77C177.977 104.605 178.115 104.743 178.115 104.95V133.999C178.115 134.206 177.977 134.344 177.77 134.344H173.078C172.664 134.344 172.388 134.62 172.388 135.034V138.553C172.388 138.967 172.664 139.243 173.078 139.243H177.77C177.977 139.243 178.115 139.381 178.115 139.588V143.935C178.115 144.349 178.391 144.625 178.805 144.625H183.704C184.118 144.625 184.394 144.349 184.394 143.935V139.588C184.394 139.45 184.532 139.312 184.67 139.312ZM196.262 134.413H184.67C184.463 134.413 184.325 134.275 184.325 134.068V122.407C184.325 122.2 184.463 122.062 184.67 122.062H196.262C196.814 122.062 197.366 122.131 197.918 122.269C201.161 123.166 203.093 126.616 202.196 129.859C201.92 130.894 201.368 131.791 200.609 132.55C199.85 133.309 198.953 133.861 197.918 134.137C197.435 134.344 196.883 134.413 196.262 134.413ZM185.015 133.723H196.262C196.745 133.723 197.228 133.654 197.711 133.516C200.609 132.688 202.334 129.721 201.506 126.754C201.023 124.891 199.574 123.442 197.711 122.959C197.228 122.821 196.745 122.752 196.262 122.752H185.015V133.723ZM196.262 116.404H184.67C184.463 116.404 184.325 116.266 184.325 116.059V104.467C184.325 104.26 184.463 104.122 184.67 104.122H196.262C199.643 104.122 202.403 106.882 202.403 110.332C202.403 111.988 201.782 113.506 200.609 114.679C199.85 115.438 198.953 115.99 197.918 116.266C197.435 116.335 196.883 116.404 196.262 116.404ZM185.015 115.714H196.262C196.745 115.714 197.228 115.645 197.711 115.507C198.608 115.231 199.436 114.817 200.126 114.127C202.265 111.988 202.265 108.538 200.126 106.399C199.091 105.364 197.711 104.812 196.262 104.812H185.015V115.714Z" fill="#686868"/>
<path d="M158.174 119.991C181.381 119.991 200.195 101.178 200.195 77.9702C200.195 54.7627 181.381 35.9492 158.174 35.9492C134.966 35.9492 116.153 54.7627 116.153 77.9702C116.153 101.178 134.966 119.991 158.174 119.991Z" fill="#1EA1FF"/>
<path d="M158.174 120.336C134.783 120.336 115.808 101.361 115.808 77.9705C115.808 54.5795 134.783 35.6045 158.174 35.6045C181.565 35.6045 200.54 54.5795 200.54 77.9015C200.54 101.361 181.565 120.267 158.174 120.336ZM158.174 36.2945C135.197 36.2945 116.498 54.9245 116.498 77.9705C116.498 100.947 135.128 119.646 158.174 119.646C181.151 119.646 199.85 101.016 199.85 77.9705C199.85 54.9935 181.22 36.3635 158.174 36.2945Z" fill="#686868"/>
<path d="M152.585 119.991C175.792 119.991 194.606 101.178 194.606 77.9702C194.606 54.7627 175.792 35.9492 152.585 35.9492C129.377 35.9492 110.564 54.7627 110.564 77.9702C110.564 101.178 129.377 119.991 152.585 119.991Z" fill="black"/>
<path d="M152.585 120.336C129.194 120.336 110.219 101.361 110.219 77.9705C110.219 54.5795 129.194 35.6045 152.585 35.6045C175.976 35.6045 194.951 54.5795 194.951 77.9705C194.882 101.361 175.976 120.267 152.585 120.336ZM152.585 36.2945C129.608 36.2945 110.909 54.9245 110.909 77.9705C110.909 100.947 129.539 119.646 152.585 119.646C175.631 119.646 194.261 101.016 194.261 77.9705C194.192 54.9935 175.562 36.3635 152.585 36.2945Z" fill="#686868"/>
<path d="M152.585 112.679C171.753 112.679 187.292 97.1398 187.292 77.9716C187.292 58.8035 171.753 43.2646 152.585 43.2646C133.417 43.2646 117.878 58.8035 117.878 77.9716C117.878 97.1398 133.417 112.679 152.585 112.679Z" fill="black"/>
<path d="M152.585 113.024C133.265 113.024 117.533 97.3609 117.533 77.9719C117.533 58.5829 133.196 42.9199 152.585 42.9199C171.974 42.9199 187.568 58.6519 187.568 77.9719C187.568 97.2919 171.905 112.955 152.585 113.024ZM152.585 43.6789C133.61 43.6789 118.223 59.0659 118.223 78.0409C118.223 97.0159 133.61 112.403 152.585 112.403C171.56 112.403 186.947 97.0159 186.947 78.0409C186.878 58.9969 171.491 43.6789 152.585 43.6789Z" fill="#686868"/>
<path d="M159.347 103.432H154.448C153.689 103.432 153.068 102.811 153.068 102.052V97.9811H147.479V101.983C147.479 102.742 146.858 103.363 146.099 103.363H141.2C140.441 103.363 139.82 102.742 139.82 101.983V97.9811H135.473C134.714 97.9811 134.093 97.3601 134.093 96.6011V93.0821C134.093 92.3231 134.714 91.7021 135.473 91.7021H139.82V63.3431H135.473C134.714 63.3431 134.093 62.7221 134.093 61.9631V58.4441C134.093 57.6851 134.714 57.0641 135.473 57.0641H139.82V53.9591C139.82 53.2001 140.441 52.5791 141.2 52.5791H146.099C146.858 52.5791 147.479 53.2001 147.479 53.9591V57.0641H153.068V53.9591C153.068 53.2001 153.689 52.5791 154.448 52.5791H159.347C160.106 52.5791 160.727 53.2001 160.727 53.9591V57.1331C166.523 57.7541 170.87 62.5841 170.939 68.3801C170.939 71.9681 169.214 75.4181 166.247 77.5571C171.284 81.2141 172.388 88.3211 168.731 93.3581C166.868 95.9801 163.901 97.6361 160.727 97.9811V102.052C160.727 102.811 160.106 103.432 159.347 103.432ZM147.203 97.2911H153.482C153.689 97.2911 153.827 97.4291 153.827 97.6361V101.983C153.827 102.397 154.103 102.673 154.517 102.673H159.416C159.83 102.673 160.106 102.397 160.106 101.983V97.5671C160.106 97.3601 160.244 97.2221 160.451 97.2221C166.316 96.8081 170.732 91.7711 170.318 85.9061C170.111 82.5941 168.317 79.6271 165.557 77.7641C165.419 77.6951 165.35 77.4881 165.419 77.2811C165.419 77.2121 165.488 77.2121 165.557 77.1431C166.178 76.7291 166.73 76.2461 167.213 75.7631C171.353 71.6231 171.353 64.8611 167.213 60.7211C165.419 58.9271 163.004 57.8231 160.451 57.6161C160.244 57.6161 160.106 57.4781 160.106 57.2711V53.8211C160.106 53.4071 159.83 53.1311 159.416 53.1311H154.517C154.103 53.1311 153.827 53.4071 153.827 53.8211V57.2711C153.827 57.4781 153.689 57.6161 153.482 57.6161H147.203C146.996 57.6161 146.858 57.4781 146.858 57.2711V53.8211C146.858 53.4071 146.582 53.1311 146.168 53.1311H141.269C140.855 53.1311 140.579 53.4071 140.579 53.8211V57.2711C140.579 57.4781 140.441 57.6161 140.234 57.6161H135.542C135.128 57.6161 134.852 57.8921 134.852 58.3061V61.8251C134.852 62.2391 135.128 62.5151 135.542 62.5151H140.234C140.441 62.5151 140.579 62.6531 140.579 62.8601V91.9091C140.579 92.1161 140.441 92.2541 140.234 92.2541H135.542C135.128 92.2541 134.852 92.5301 134.852 92.9441V96.4631C134.852 96.8771 135.128 97.1531 135.542 97.1531H140.234C140.441 97.1531 140.579 97.2911 140.579 97.4981V101.845C140.579 102.259 140.855 102.535 141.269 102.535H146.168C146.582 102.535 146.858 102.259 146.858 101.845V97.4981C146.858 97.4291 146.996 97.2911 147.203 97.2911ZM158.795 92.3921H147.203C146.996 92.3921 146.858 92.2541 146.858 92.0471V80.4551C146.858 80.2481 146.996 80.1101 147.203 80.1101H158.795C162.176 80.1101 164.936 82.8701 164.936 86.2511C164.936 89.6321 162.245 92.3921 158.795 92.3921ZM147.548 91.7021H158.795C159.278 91.7021 159.83 91.6331 160.244 91.4951C163.142 90.6671 164.867 87.7001 164.039 84.7331C163.556 82.8701 162.107 81.4211 160.244 80.9381C159.761 80.8001 159.278 80.7311 158.795 80.7311H147.548V91.7021ZM158.795 74.3831H147.203C146.996 74.3831 146.858 74.2451 146.858 74.0381V62.3771C146.858 62.1701 146.996 62.0321 147.203 62.0321H158.795C162.176 62.0321 164.936 64.7921 164.936 68.1731C164.936 71.5541 162.245 74.3831 158.795 74.3831ZM147.548 73.6931H158.795C160.244 73.6931 161.624 73.1411 162.659 72.1061C164.798 69.9671 164.798 66.5171 162.659 64.3781C161.969 63.6881 161.141 63.2051 160.244 62.9981C159.761 62.8601 159.278 62.7911 158.795 62.7911H147.548V73.6931Z" fill="#686868"/>
<path d="M137.888 177.538C161.095 177.538 179.909 158.725 179.909 135.517C179.909 112.31 161.095 93.4961 137.888 93.4961C114.68 93.4961 95.8669 112.31 95.8669 135.517C95.8669 158.725 114.68 177.538 137.888 177.538Z" fill="#1EA1FF"/>
<path d="M137.888 177.883C114.497 177.883 95.522 158.908 95.522 135.517C95.522 112.126 114.497 93.1514 137.888 93.1514C161.279 93.1514 180.254 112.126 180.254 135.517C180.254 158.908 161.279 177.883 137.888 177.883ZM137.888 93.9104C114.911 93.9104 96.212 112.54 96.212 135.586C96.212 158.632 114.842 177.262 137.888 177.262C160.934 177.262 179.564 158.632 179.564 135.586C179.564 112.54 160.934 93.9104 137.888 93.9104Z" fill="#686868"/>
<path d="M174.251 135.517C174.251 157.597 157.139 175.951 135.059 177.4C134.093 177.469 133.196 177.469 132.23 177.469C111.944 177.469 94.6247 162.979 90.8987 143.107C90.4157 140.623 90.2087 138.07 90.2087 135.517C90.2087 112.333 109.046 93.4961 132.23 93.4961C133.196 93.4961 134.093 93.4961 135.059 93.5651C157.139 95.1521 174.251 113.437 174.251 135.517Z" fill="black"/>
<path d="M132.299 177.885C111.875 177.885 94.3489 163.326 90.6229 143.247C86.4139 120.201 101.663 98.1207 124.64 93.9117C127.124 93.4287 129.677 93.2217 132.23 93.2217C133.196 93.2217 134.162 93.2907 135.059 93.2907C158.381 94.8777 176.045 115.095 174.458 138.417C173.009 159.531 156.173 176.367 135.059 177.816C134.162 177.885 133.196 177.885 132.299 177.885ZM132.299 93.9117C109.322 93.9117 90.6919 112.542 90.6229 135.588C90.6229 138.141 90.8299 140.625 91.3129 143.109C94.9699 162.843 112.22 177.195 132.299 177.195C133.265 177.195 134.162 177.195 135.128 177.126C158.105 175.539 175.424 155.667 173.837 132.759C172.388 111.99 155.897 95.4297 135.128 94.0497C134.162 93.9117 133.196 93.9117 132.299 93.9117Z" fill="#686868"/>
<path d="M132.299 170.155C151.429 170.155 166.937 154.647 166.937 135.517C166.937 116.387 151.429 100.879 132.299 100.879C113.169 100.879 97.661 116.387 97.661 135.517C97.661 154.647 113.169 170.155 132.299 170.155Z" fill="black"/>
<path d="M132.299 170.569C112.979 170.569 97.2469 154.906 97.2469 135.586C97.2469 116.266 112.91 100.534 132.23 100.534C151.55 100.534 167.282 116.197 167.282 135.517C167.282 154.837 151.619 170.5 132.299 170.569ZM132.299 101.224C113.324 101.224 97.9369 116.611 97.9369 135.517C97.9369 154.492 113.324 169.879 132.23 169.879C151.136 169.879 166.592 154.492 166.592 135.586C166.592 116.611 151.205 101.224 132.299 101.224Z" fill="#686868"/>
<path d="M139.061 160.979H134.162C133.403 160.979 132.782 160.358 132.782 159.599V155.597H127.193V159.599C127.193 160.358 126.572 160.979 125.813 160.979H120.914C120.155 160.979 119.534 160.358 119.534 159.599V155.597H115.187C114.428 155.597 113.807 154.976 113.807 154.217V150.698C113.807 149.939 114.428 149.318 115.187 149.318H119.534V120.959H115.187C114.428 120.959 113.807 120.338 113.807 119.579V116.06C113.807 115.301 114.428 114.68 115.187 114.68H119.534V111.506C119.534 110.747 120.155 110.126 120.914 110.126H125.813C126.572 110.126 127.193 110.747 127.193 111.506V114.68H132.782V111.506C132.782 110.747 133.403 110.126 134.162 110.126H139.061C139.82 110.126 140.441 110.747 140.441 111.506V114.68C146.237 115.301 150.653 120.131 150.653 125.927C150.653 128.894 149.48 131.792 147.341 133.931C146.927 134.345 146.444 134.759 145.961 135.104C150.998 138.761 152.102 145.868 148.445 150.905C146.582 153.527 143.615 155.183 140.441 155.528V159.599C140.441 160.358 139.82 160.979 139.061 160.979ZM126.917 154.838H133.196C133.403 154.838 133.541 154.976 133.541 155.183V159.53C133.541 159.944 133.817 160.22 134.231 160.22H139.13C139.544 160.22 139.82 159.944 139.82 159.53V155.114C139.82 154.907 139.958 154.769 140.165 154.769C146.03 154.355 150.446 149.318 150.032 143.453C149.825 140.141 148.031 137.174 145.271 135.311C145.133 135.173 145.064 134.966 145.202 134.828C145.202 134.759 145.271 134.759 145.271 134.759C145.892 134.345 146.444 133.862 146.927 133.379C151.067 129.239 151.067 122.546 146.927 118.337C145.133 116.543 142.718 115.439 140.165 115.232C139.958 115.232 139.82 115.094 139.82 114.887V111.368C139.82 110.954 139.544 110.678 139.13 110.678H134.231C133.817 110.678 133.541 110.954 133.541 111.368V114.818C133.541 115.025 133.403 115.163 133.196 115.163H126.917C126.71 115.163 126.572 115.025 126.572 114.818V111.368C126.572 110.954 126.296 110.678 125.882 110.678H120.983C120.569 110.678 120.293 110.954 120.293 111.368V114.818C120.293 115.025 120.155 115.163 119.948 115.163H115.256C114.842 115.163 114.566 115.439 114.566 115.853V119.372C114.566 119.786 114.842 120.062 115.256 120.062H119.948C120.155 120.062 120.293 120.2 120.293 120.407V149.525C120.293 149.732 120.155 149.87 119.948 149.87H115.256C114.842 149.87 114.566 150.146 114.566 150.56V154.079C114.566 154.493 114.842 154.769 115.256 154.769H119.948C120.155 154.769 120.293 154.907 120.293 155.114V159.461C120.293 159.875 120.569 160.151 120.983 160.151H125.882C126.296 160.151 126.572 159.875 126.572 159.461V155.114C126.572 154.976 126.71 154.838 126.917 154.838ZM138.509 150.008H126.917C126.71 150.008 126.572 149.87 126.572 149.663V138.002C126.572 137.795 126.71 137.657 126.917 137.657H138.509C139.061 137.657 139.613 137.726 140.165 137.864C143.408 138.761 145.34 142.211 144.443 145.454C143.891 147.524 142.235 149.111 140.165 149.732C139.613 149.87 139.061 150.008 138.509 150.008ZM127.262 149.318H138.509C139.958 149.318 141.338 148.766 142.373 147.731C144.512 145.592 144.512 142.142 142.373 140.003C141.683 139.313 140.855 138.83 139.958 138.623C139.475 138.485 138.992 138.416 138.509 138.416H127.262V149.318ZM138.509 131.93H126.917C126.71 131.93 126.572 131.792 126.572 131.585V119.924C126.572 119.717 126.71 119.579 126.917 119.579H138.509C139.061 119.579 139.613 119.648 140.165 119.786C143.408 120.683 145.34 124.133 144.443 127.376C144.167 128.411 143.615 129.308 142.856 130.067C142.097 130.826 141.2 131.378 140.165 131.654C139.613 131.861 139.061 131.93 138.509 131.93ZM127.262 131.24H138.509C139.958 131.24 141.338 130.688 142.373 129.653C144.512 127.514 144.512 124.064 142.373 121.925C141.683 121.235 140.855 120.752 139.958 120.545C139.475 120.407 138.992 120.338 138.509 120.338H127.262V131.24Z" fill="#686868"/>
<path d="M102.283 164.91L88.2763 165.6C88.2763 165.6 82.9633 157.044 82.4803 154.629C82.2043 153.249 82.3423 151.8 82.9633 150.558C84.8953 146.418 88.5523 144.21 90.9673 143.106C92.4853 151.386 96.4183 158.976 102.283 164.91Z" fill="#1EA1FF"/>
<path d="M88.2769 165.945C88.1389 165.945 88.0699 165.876 88.0009 165.807C87.7939 165.462 82.6189 157.182 82.1359 154.698C81.7909 153.249 81.9979 151.731 82.6189 150.42C84.5509 146.349 88.1389 144.072 90.8299 142.899C90.8989 142.83 91.0369 142.83 91.1059 142.899C91.1749 142.968 91.2439 143.037 91.3129 143.175C92.8309 151.317 96.6949 158.838 102.491 164.772C102.56 164.841 102.629 164.979 102.56 165.117C102.491 165.255 102.422 165.324 102.284 165.324L88.2769 165.945ZM90.6919 143.658C87.4489 145.107 84.8269 147.591 83.2399 150.696C82.6879 151.869 82.5499 153.249 82.8259 154.56C83.2399 156.699 87.7249 164.013 88.4839 165.255L101.525 164.565C95.9359 158.769 92.2099 151.524 90.6919 143.658Z" fill="#686868"/>
<path d="M287.342 266.961L142.511 305.533C142.511 305.533 127.676 310.017 123.674 296.976L80.9628 157.113C78.2718 148.281 86.2068 141.589 90.4158 138.76C90.6228 140.761 90.8988 142.762 91.3818 144.763C79.7898 152.698 81.8598 163.806 99.5238 161.116C117.05 158.493 213.857 134.62 245.597 126.754C251.255 125.374 256.982 128.617 258.707 134.206L295.07 253.092C296.864 258.888 293.552 265.029 287.825 266.755C287.549 266.893 287.48 266.892 287.342 266.961Z" fill="#1EA1FF"/>
<path d="M136.922 306.568C132.161 306.568 125.813 304.981 123.398 297.046L80.6178 157.252C77.9268 148.351 85.4478 141.727 90.2088 138.553C90.3468 138.484 90.4158 138.484 90.5538 138.553C90.6918 138.622 90.7608 138.691 90.7608 138.829C90.9678 140.83 91.2438 142.831 91.6578 144.763C91.6578 144.901 91.6578 145.039 91.5198 145.108C86.0688 148.834 83.4468 153.526 84.7578 156.976C86.2068 160.564 91.6578 162.013 99.3858 160.84C116.912 158.218 215.582 133.861 245.459 126.478C251.324 125.029 257.258 128.41 258.983 134.137L295.346 253.024C297.14 259.027 293.828 265.306 287.825 267.169C287.687 267.238 287.549 267.238 287.411 267.307L142.58 305.809C140.717 306.292 138.785 306.568 136.922 306.568ZM90.0708 139.45C85.4478 142.624 78.7548 148.903 81.2388 157.045L123.95 296.839C125.537 302.083 129.125 305.119 134.576 305.809C137.198 306.085 139.82 305.878 142.373 305.188L287.204 266.617C292.862 265.099 296.243 259.303 294.725 253.645C294.656 253.507 294.656 253.369 294.587 253.231L258.224 134.344C256.568 128.962 250.979 125.788 245.528 127.168C215.72 134.62 116.981 158.908 99.3858 161.53C91.3128 162.772 85.5858 161.116 84.0678 157.183C82.6188 153.457 85.3098 148.558 90.8988 144.625C90.5538 142.9 90.2778 141.175 90.0708 139.45Z" fill="#686868"/>
<path d="M132.506 299.875C129.125 299.875 125.537 299.254 123.398 297.115C123.26 296.977 123.26 296.77 123.398 296.632C123.536 296.494 123.743 296.494 123.881 296.632C128.297 301.117 140.303 298.288 140.372 298.219L285.41 259.717C287.273 259.234 288.377 257.371 287.894 255.508C287.894 255.439 287.894 255.37 287.825 255.37L251.462 136.483C250.91 134.758 249.116 133.723 247.322 134.137C209.027 143.659 117.947 166.015 100.559 168.637C97.7301 169.12 94.7631 169.189 91.9341 169.051C91.5201 168.982 83.6541 167.119 82.1361 162.151C82.0671 161.944 82.2051 161.737 82.4121 161.737C82.6191 161.668 82.8261 161.806 82.8261 162.013C84.2061 166.567 92.0031 168.361 92.0721 168.43C92.8311 168.499 93.6591 168.499 94.5561 168.499C96.5571 168.499 98.5581 168.361 100.559 168.016C117.947 165.394 208.958 143.038 247.253 133.516C249.392 132.964 251.6 134.206 252.221 136.345L288.584 255.301C289.274 257.509 288.032 259.786 285.893 260.476C285.824 260.476 285.755 260.545 285.686 260.545L140.717 299.116C137.957 299.53 135.266 299.875 132.506 299.875Z" fill="#686868"/>
<path d="M272.3 179.124L269.264 169.257C274.715 169.533 277.475 171.12 277.82 173.121V173.19C278.234 175.122 276.302 177.33 272.3 179.124Z" fill="#1EA1FF"/>
<path d="M272.3 179.538C272.162 179.538 272.024 179.469 271.955 179.262L268.988 169.326C268.919 169.119 269.057 168.981 269.195 168.912C269.264 168.912 269.264 168.912 269.333 168.912C274.577 169.188 277.82 170.706 278.234 173.052V173.121C278.579 175.329 276.44 177.675 272.438 179.469H272.369C272.369 179.469 272.369 179.469 272.3 179.538ZM269.816 169.671L272.576 178.71C275.957 177.123 277.889 175.053 277.613 173.259V173.19C277.199 171.258 274.301 170.016 269.816 169.671Z" fill="#686868"/>
<path d="M283.339 215.555C277.198 218.315 250.909 224.594 238.351 227.561C234.556 228.458 230.692 226.25 229.519 222.455L222.826 200.237C221.653 196.304 223.861 192.164 227.794 190.991C227.932 190.922 228.139 190.922 228.277 190.853C241.18 187.817 266.296 181.814 272.368 179.123C276.37 177.329 278.233 175.052 277.957 173.189L288.859 209.207V209.276C289.411 211.277 287.479 213.692 283.339 215.555Z" fill="black"/>
<path d="M236.627 228.045C233.177 228.045 230.21 225.768 229.175 222.525L222.482 200.307C221.24 196.236 223.517 191.889 227.657 190.647C227.795 190.578 228.002 190.578 228.14 190.509C242.009 187.266 266.228 181.47 272.162 178.779H272.231C275.819 177.123 277.889 174.984 277.613 173.19C277.613 172.983 277.682 172.845 277.889 172.776C278.096 172.707 278.234 172.845 278.303 173.052L289.205 209.139C289.895 211.347 287.756 213.969 283.547 215.832C277.544 218.592 252.704 224.526 238.49 227.838C237.8 228.045 237.179 228.114 236.627 228.045ZM272.438 179.469C266.435 182.16 242.216 188.025 228.347 191.268C224.552 192.165 222.206 195.96 223.103 199.755C223.172 199.893 223.172 200.031 223.241 200.238L229.934 222.456C231.038 225.975 234.626 228.114 238.283 227.286C249.737 224.595 277.061 218.109 283.271 215.349C287.135 213.624 289.136 211.347 288.584 209.484V209.415L278.165 174.915C277.475 176.571 275.543 178.227 272.576 179.538L272.438 179.469Z" fill="#686868"/>
<path d="M277.888 173.535C277.75 173.535 277.612 173.466 277.543 173.259V173.19C277.474 172.983 277.612 172.776 277.819 172.776C278.026 172.707 278.233 172.845 278.233 173.052V173.121C278.302 173.328 278.164 173.466 277.957 173.535H277.888Z" fill="#686868"/>
<path d="M254.153 214.037C259.564 214.037 263.95 209.651 263.95 204.239C263.95 198.828 259.564 194.441 254.153 194.441C248.741 194.441 244.354 198.828 244.354 204.239C244.354 209.651 248.741 214.037 254.153 214.037Z" fill="black"/>
<path d="M254.153 214.453C248.564 214.453 244.01 209.899 244.01 204.31C244.01 198.721 248.564 194.167 254.153 194.167C259.742 194.167 264.296 198.721 264.296 204.31C264.296 209.83 259.811 214.453 254.153 214.453ZM254.153 194.788C248.909 194.788 244.7 198.997 244.7 204.241C244.7 209.485 248.909 213.694 254.153 213.694C259.397 213.694 263.606 209.485 263.606 204.241C263.606 204.241 263.606 204.241 263.606 204.172C263.606 198.997 259.397 194.788 254.153 194.788Z" fill="#686868"/>
<path d="M254.152 208.863C256.706 208.863 258.775 206.793 258.775 204.24C258.775 201.687 256.706 199.617 254.152 199.617C251.599 199.617 249.529 201.687 249.529 204.24C249.529 206.793 251.599 208.863 254.152 208.863Z" fill="#1EA1FF"/>
<path d="M254.153 209.276C251.393 209.276 249.116 207.068 249.116 204.308C249.116 201.548 251.324 199.271 254.084 199.271C256.844 199.271 259.121 201.479 259.121 204.239C259.121 206.999 256.913 209.276 254.153 209.276ZM254.153 199.961C251.738 199.961 249.806 201.893 249.806 204.239C249.806 206.585 251.738 208.586 254.084 208.586C256.499 208.586 258.431 206.654 258.431 204.308C258.431 201.893 256.499 199.961 254.153 199.961Z" fill="#686868"/>
</g>
<defs>
<filter id="filter0_dddddd_6343_19221" x="-63" y="0" width="505" height="525" filterUnits="userSpaceOnUse" color-interpolation-filters="sRGB">
<feFlood flood-opacity="0" result="BackgroundImageFix"/>
<feColorMatrix in="SourceAlpha" type="matrix" values="0 0 0 0 0 0 0 0 0 0 0 0 0 0 0 0 0 0 127 0" result="hardAlpha"/>
<feOffset dy="2.76726"/>
<feGaussianBlur stdDeviation="1.1069"/>
<feColorMatrix type="matrix" values="0 0 0 0 0.117647 0 0 0 0 0.631373 0 0 0 0 1 0 0 0 0.0196802 0"/>
<feBlend mode="normal" in2="BackgroundImageFix" result="effect1_dropShadow_6343_19221"/>
<feColorMatrix in="SourceAlpha" type="matrix" values="0 0 0 0 0 0 0 0 0 0 0 0 0 0 0 0 0 0 127 0" result="hardAlpha"/>
<feOffset dy="6.6501"/>
<feGaussianBlur stdDeviation="2.66004"/>
<feColorMatrix type="matrix" values="0 0 0 0 0.117647 0 0 0 0 0.631373 0 0 0 0 1 0 0 0 0.0282725 0"/>
<feBlend mode="normal" in2="effect1_dropShadow_6343_19221" result="effect2_dropShadow_6343_19221"/>
<feColorMatrix in="SourceAlpha" type="matrix" values="0 0 0 0 0 0 0 0 0 0 0 0 0 0 0 0 0 0 127 0" result="hardAlpha"/>
<feOffset dy="12.5216"/>
<feGaussianBlur stdDeviation="5.00862"/>
<feColorMatrix type="matrix" values="0 0 0 0 0.117647 0 0 0 0 0.631373 0 0 0 0 1 0 0 0 0.035 0"/>
<feBlend mode="normal" in2="effect2_dropShadow_6343_19221" result="effect3_dropShadow_6343_19221"/>
<feColorMatrix in="SourceAlpha" type="matrix" values="0 0 0 0 0 0 0 0 0 0 0 0 0 0 0 0 0 0 127 0" result="hardAlpha"/>
<feOffset dy="22.3363"/>
<feGaussianBlur stdDeviation="8.93452"/>
<feColorMatrix type="matrix" values="0 0 0 0 0.117647 0 0 0 0 0.631373 0 0 0 0 1 0 0 0 0.0417275 0"/>
<feBlend mode="normal" in2="effect3_dropShadow_6343_19221" result="effect4_dropShadow_6343_19221"/>
<feColorMatrix in="SourceAlpha" type="matrix" values="0 0 0 0 0 0 0 0 0 0 0 0 0 0 0 0 0 0 127 0" result="hardAlpha"/>
<feOffset dy="41.7776"/>
<feGaussianBlur stdDeviation="16.711"/>
<feColorMatrix type="matrix" values="0 0 0 0 0.117647 0 0 0 0 0.631373 0 0 0 0 1 0 0 0 0.0503198 0"/>
<feBlend mode="normal" in2="effect4_dropShadow_6343_19221" result="effect5_dropShadow_6343_19221"/>
<feColorMatrix in="SourceAlpha" type="matrix" values="0 0 0 0 0 0 0 0 0 0 0 0 0 0 0 0 0 0 127 0" result="hardAlpha"/>
<feOffset dy="100"/>
<feGaussianBlur stdDeviation="40"/>
<feColorMatrix type="matrix" values="0 0 0 0 0.117647 0 0 0 0 0.631373 0 0 0 0 1 0 0 0 0.07 0"/>
<feBlend mode="normal" in2="effect5_dropShadow_6343_19221" result="effect6_dropShadow_6343_19221"/>
<feBlend mode="normal" in="SourceGraphic" in2="effect6_dropShadow_6343_19221" result="shape"/>
</filter>
</defs>
</svg>
